<?xml version="1.0" encoding="utf-8"?>
<!-- Generator: Adobe Illustrator 18.1.0, SVG Export Plug-In . SVG Version: 6.00 Build 0)  -->
<svg version="1.1" id="Layer_1" xmlns="http://www.w3.org/2000/svg" xmlns:xlink="http://www.w3.org/1999/xlink" x="0px" y="0px"
	 viewBox="0 0 429 246" style="enable-background:new 0 0 429 246;" xml:space="preserve">
<style type="text/css">
	.st0{fill:#FFFFFF;}
</style>
<g>
	<path class="st0" d="M163.3,145.5c-2.7-1.6-5.7-2.3-8.8-2.3c-4.5,0-9.2,2.1-14.1,6.2c-5,4.2-9.6,10-13.8,17.4
		c-3.3,6-5.9,12-7.6,18.2c-2.1,6.5-3.1,12.5-3.1,18c0,4.7,1,8.4,3.1,11.3c2,2.8,4.7,4.2,8.2,4.2c4.1,0,8.5-2.1,13.3-6.3
		c4.7-4.2,9.4-10.3,14.2-18.2c3.1-5.3,5.7-10.8,7.6-16.7c2.2-7.8,3.9-13.8,4.8-17.9l1.5-7.5C167.9,149.2,166.1,147.1,163.3,145.5z"
		/>
	<path class="st0" d="M273.7,146.1c-4.3,0-9.2,2.6-14.6,7.9c-5.7,5.5-11.1,12.8-16.4,22c-5.7,9.8-10.9,20.8-15.7,33
		c4.4,9.2,10.7,13.8,18.9,13.8c5.9,0,11.3-2.5,16.4-7.6c4.9-5.1,9.3-12.5,13.3-22.1c2.2-5.7,4.1-11.6,5.6-17.9
		c1.5-6.3,2.2-11.4,2.2-15.2C283.4,150.7,280.2,146.1,273.7,146.1z"/>
	<path class="st0" d="M96.3,161.8c2.3-4.6,3.5-8.6,3.5-12.2c0-4.6-2.1-6.9-6.3-6.9c-6.3,0-12.7,5-19.2,14.9
		c-6.5,10.1-10.4,20.9-11.6,32.4c10.4-4.6,18.5-9.8,24.3-15.7C91,170.3,94.1,166.1,96.3,161.8z"/>
	<path class="st0" d="M0,0v246h429V0H0z M202.4,112.2c0.1,0,0.7,0.2,1.3,0.5c-0.4,0.1-0.8,0.2-1.2,0.3c-0.8,0.3-2.4,1.2-1.5,2.2
		c0.7,0.7,2.1,1.2,3,1.5c0.7,0.2,1.4,0.4,2,0.6c0.6,0.2,1.1,0.5,1.7,0.7c0.9,0.3,2,0.1,2.8-0.4c0.4-0.2,1.3-1.1,0.4-1.4
		c-0.6-0.2-1.3-0.6-1.9-0.8c-0.8-0.3-1.6-0.4-2.4-0.7c-0.2-0.1-0.5-0.3-0.8-0.4c0.8-0.2,3.3-0.9,2.8-2.2c-0.2-0.5-0.9-0.6-1.4-0.9
		c-0.6-0.3-1.2-0.6-1.8-0.9c2.5-0.6,4.8-0.4,7,0.5c2.8,1.2,4.8,3.4,6,6.6c0.2,0.6,0.4,1.3,0.6,1.9l-21.4,8.4
		c-0.3-0.6-0.6-1.1-0.9-1.8c-1.2-3-1.1-5.9,0.2-8.8c1-2.3,2.6-4.1,4.8-5.3C201.9,112,202.1,112.2,202.4,112.2z M205.4,112.5
		C205.9,112.1,205.6,112.5,205.4,112.5C205.5,112.5,205.5,112.5,205.4,112.5z M277.8,209c-9.6,11.6-20.1,17.4-31.6,17.4
		c-3.7,0-7.2-0.6-10.4-1.9c-3.1-1.1-6.8-3.1-11.1-6l-10.3,6.2l2.6-13.3c-4.5,5.1-7.8,8.7-10.1,10.6c-2.6,2.3-5.1,3.5-7.3,3.5
		c-3,0-5.6-1.6-7.6-4.7c-2.1-3-3.2-6.8-3.2-11.4c0,0,0-0.1,0-0.1c-2.8,3.1-4.5,5-5,5.6l-4.8,4.8c-2.3,2.3-4.1,3.9-5.3,4.5
		c-1.1,0.7-2.3,1-3.8,1c-3.2,0-5.9-1.7-8.1-5c-2.1-3.3-3.2-7.1-3.2-11.4c0-2.2,0.7-6.9,2.1-13.9l1.6-8.3c-2.4,6-6.4,12.6-12,20.1
		c-9.8,12.7-19.3,19-28.7,19c-5.6,0-10-2.1-13.2-6.2c-1.6-2-2.8-4.4-3.6-7.1c-3.3,3.4-6.7,6.2-10,8.3c-5.7,3.6-11.9,5.4-18.6,5.4
		c-7.8,0-14.2-2.6-19-7.9c-4.8-5.2-7.2-12.2-7.2-20.9s2.3-17.7,7-26.8c4.5-8.9,10.3-16.4,17.4-22.4c6.9-5.9,13.8-8.8,20.7-8.8
		c4,0,7.3,1.2,10,3.5c2.5,2.3,3.8,5.4,3.8,9.1c0,7.5-4.1,15-12.3,22.6c-8.3,7.6-19.5,14-33.5,19.2c-0.1,0.5-0.1,1.4-0.1,2.6
		c0,6.6,1.9,12.1,5.6,16.4c3.7,4.3,8.5,6.4,14.4,6.4c4.7,0,9.1-1.5,13.3-4.4c2.5-1.6,5.2-3.8,7.8-6.6c-0.2-1.6-0.3-3.2-0.3-5
		c0-9.8,2.5-19.6,7.6-29.4c5.2-10,11.7-18.1,19.5-24.5c7.8-6.4,15.6-9.7,23.4-9.7c5.7,0,11,1.7,16.1,5.1l15.5-77.5l13.8-4.2
		L171,186.4c-2.1,8.9-3.1,15.1-3.1,18.8c0,3.1,0.6,5.7,1.8,7.6c1.1,2,2.6,2.9,4.5,2.9c2.5,0,5.6-1.9,9.2-5.7l4.2-4.2
		c0.1-0.1,0.2-0.2,0.3-0.3c0.1-0.1,0.2-0.2,0.4-0.3l0.6,0.5c0.3-2.7,0.8-6.1,1.5-10.2l9.2-51.3l14.4-6l-12.9,48.2
		c-2.1,7.7-3.2,14.1-3.2,19c0,3.1,0.5,5.7,1.6,7.6c1.1,2,2.5,2.9,4.2,2.9c3,0,7.8-3.6,14.4-10.7l30.9-157.4l13.9-4.2L227,198.1
		c17.6-39.3,34.8-58.9,51.7-58.9c3.4,0,6.5,0.9,9.2,2.6c2.6,1.9,4.7,4.5,6.3,8.1c1.5,3.5,2.2,7.2,2.2,11.1c0,7.4-1.8,15.6-5.3,24.6
		C287.7,194.8,283.2,202.6,277.8,209z M361.5,220.7c-5.7,3.6-11.9,5.4-18.6,5.4c-7.8,0-14.2-2.6-19-7.9c-1.6-1.7-2.9-3.7-4-5.9
		c-4,4.6-7.1,7.9-9.3,9.7c-2.6,2.3-5.1,3.5-7.3,3.5c-2.9,0-5.5-1.7-7.6-5c-2.2-3.3-3.4-7-3.4-11.1c0-3.2,0.6-7.9,1.9-13.9L328,25
		l4.7-2.3l10.2-3.1l-38,166.8l-1.3,5.7c-1.3,5.2-1.9,9.7-1.9,13.6c0,2.9,0.6,5.4,1.8,7.3c1.1,2,2.4,2.9,4.1,2.9
		c2.5,0,6.1-2.4,10.9-7.1c-1.2-3.4-1.7-7.3-1.7-11.6c0-8.8,2.3-17.7,7-26.8c4.5-8.9,10.3-16.4,17.4-22.4c6.9-5.9,13.8-8.8,20.7-8.8
		c4,0,7.3,1.2,10,3.5c2.5,2.3,3.8,5.4,3.8,9.1c0,7.5-4.1,15-12.3,22.6c-8.3,7.6-19.5,14-33.5,19.2c-0.1,0.5-0.1,1.4-0.1,2.6
		c0,6.6,1.9,12.1,5.6,16.4c3.7,4.3,8.5,6.4,14.4,6.4c4.7,0,9.1-1.5,13.3-4.4c4.4-2.8,9-7.3,13.8-13.5l2.6,2.2
		C373.4,211.2,367.4,217,361.5,220.7z"/>
	<path class="st0" d="M363.2,161.8c2.3-4.6,3.5-8.6,3.5-12.2c0-4.6-2.1-6.9-6.3-6.9c-6.3,0-12.7,5-19.2,14.9
		c-6.5,10.1-10.4,20.9-11.6,32.4c10.3-4.6,18.5-9.8,24.3-15.7C357.9,170.3,361,166.1,363.2,161.8z"/>
</g>
</svg>
