<?xml version="1.0" encoding="utf-8"?>
<!-- Generator: Adobe Illustrator 18.1.0, SVG Export Plug-In . SVG Version: 6.00 Build 0)  -->
<svg version="1.1" id="Layer_1" xmlns="http://www.w3.org/2000/svg" xmlns:xlink="http://www.w3.org/1999/xlink" x="0px" y="0px"
	 viewBox="0 0 350.7 176.5" style="enable-background:new 0 0 350.7 176.5;" xml:space="preserve">
<style type="text/css">
	.st0{fill:#FFFFFF;}
	.st1{fill:#DCA54F;}
</style>
<g id="FORRATS">
	<path class="st0" d="M53.4,144.9v4.2H95v-4.2c0,0-13.5,1-13.2-9.7c0.3-10.6,0.3-55.4,0.3-55.4H95v-4.5H81.8l0.3-33.8
		c0,0,1.3-16.9,12.9-16.4c11.6,0.5,7.6,8.7,7.6,8.7s0.3,6.8,7.9,5.2c7.6-1.6,5-10.5,5-10.5s-8.2-13.5-26.3-8.2s-21.7,25-21.7,25v30
		H37.7v4.5h29.8v55.6C67.5,135.2,67.5,144.7,53.4,144.9z"/>
	<path class="st0" d="M110.3,96.2c0,0-13.9,0.8-14.8,12.7c-1,11.9,11.8,14.3,11.8,14.3s13,2.4,17.2-9.5
		C128.7,101.9,114.8,96.2,110.3,96.2z M110.4,119.8c-5.9,0.5-5.7-12.2-5.7-12.2s0.7-7.1,5.7-6.8c4.7,0.3,5.5,6,5.5,6
		S116.3,119.3,110.4,119.8z"/>
	<path class="st0" d="M135.7,98.7v2.1c0,0,5.2-0.2,5.4,4.8c0.2,5.1,0,10.4,0,10.4s-0.2,4.2-5.4,4v2.2H155V120c0,0-5.4,0.1-5.6-4.3
		s0-8.9,0-8.9s2.4-6.2,5.6-4.3c3.1,1.8,2.2,3.3,2.2,3.3s1.2,3.6,4,1.9c2.8-1.7,4-7.1,0-9.8c-4-2.7-9.1,1-9.1,1l-3.6,2.4v-4.9
		L135.7,98.7z"/>
	<path class="st0" d="M174.8,98.7v2.1c0,0,5.2-0.2,5.4,4.8c0.2,5.1,0,10.4,0,10.4s-0.2,4.2-5.4,4v2.2h19.3V120c0,0-5.4,0.1-5.6-4.3
		c-0.1-4.5,0-8.9,0-8.9s2.4-6.2,5.6-4.3c3.1,1.8,2.2,3.3,2.2,3.3s1.2,3.6,4,1.9c2.8-1.7,4-7.1,0-9.8c-4-2.7-9.1,1-9.1,1l-3.6,2.4
		v-4.9L174.8,98.7z"/>
	<path class="st0" d="M238.5,119.2c-2.5,0.5-1.8-1.8-1.8-1.8s-0.1-10,0-12.4c0.1-2.4-3.6-6.2-3.6-6.2c-7.6-5.9-16.3,0-16.3,0
		c-3.4,2.6-3,8.4,1,7.5c4-0.8,3.3-4.3,3.3-4.3s0.1-3.2,4.5-2.2c4.3,1,2.9,6.5,2.9,6.5c-3.9-0.4-10.7,3.3-10.7,3.3s-7.6,3.5-4.4,10
		c3.1,6.5,10.3,3.7,12.9,1.1s3.4,0,3.4,0c2.3,4.2,9.7,2.4,11.1,0C242.8,117,241,118.7,238.5,119.2z M228.9,115.5
		c0,0-5.7,5.7-7.9,2.9c-2.2-2.8,0.2-7.6,7.9-8.6V115.5z"/>
	<path class="st0" d="M252.3,98.7c0,0,9.2-1.1,9.2-9.8h2.4v9.8h6.5v2.7H264l-0.1,15.1c0,0,1.3,5.4,6,1.8c4.7-3.6,3.3,0.4,0.4,3.1
		c-2.9,2.8-12,4.2-13.8-0.7l-0.4-3.1v-16.3l-3.9,0.1V98.7z"/>
	<path class="st0" d="M310.8,97v8.2h-2c0,0-1-5.5-6.9-5.5s-2.9,4.8-1.8,4.6c0,0,2.7,2.2,6.2,3.3s6.3,4.8,6.5,6.2
		c0.2,1.4,0.5,5.6-3.6,8.2c-4.2,2.5-10.6,0.8-10.6,0.8s-3.1-3.3-4.3-1.6c0,0-0.5,1.5-0.4,2.2h-1.6v-10.3l1.8-0.1
		c0,0-0.5,3.7,5.1,6.5c5.7,2.8,7.2-1.1,7.2-1.1s1.1-3.7-3.8-5.1c-4.9-1.4-8.7-2.8-10-6.8c-1.3-4,2-7.8,2.7-8.3c0.7-0.5,5-2.7,11-0.6
		c0,0,2.4,1.9,2.8-0.1L310.8,97z"/>
	<g>
		<path class="st1" d="M291.6,79.8c0,7.7-7,12.7-8.5,13.6c-0.4,0.2-0.9,0.6-1.4,0.6s-0.8-0.2-0.8-0.6c0-0.4,0-0.6,0.6-1
			c1.7-1.6,5.1-5.2,5.1-9.1c0-1-0.6-2-1.2-2.3c-0.7-0.3-4.1-1.1-4.1-4.7c0-1.9,1.4-3.5,4-3.5C287.9,72.9,291.6,75.3,291.6,79.8z"/>
	</g>
</g>
<g id="CHOCOLATES">
	<g>
		<path class="st1" d="M109.4,149.6c0,1.7,0.8,3.6,1.6,4.8c1,1.4,2.4,1.6,3.4,1.6c1.6,0,2.4-0.3,3.5-1.4c0.1-0.1,0.2-0.1,0.3,0
			l0.3,0.3c0.1,0.1,0.2,0.2,0,0.4c-0.9,1-2.9,2.2-5.1,2.2c-1.7,0-3.4-0.4-4.9-2.2c-1.2-1.5-1.4-2.9-1.4-4.3c0-3.7,2.6-7.4,6.7-7.4
			c3.3,0,4.3,1.9,4.3,2.5c0,0.7-0.5,1.1-1.2,1.1c-0.7,0-1.3-0.4-1.7-1.3c-0.7-1.3-1.4-1.4-2.1-1.4
			C111.3,144.7,109.4,146.4,109.4,149.6z"/>
		<path class="st1" d="M130.1,140.1c0-1.9-0.4-2.3-1.5-2.6l-0.5-0.2c-0.2-0.1-0.2-0.1-0.2-0.2v-0.3c0-0.1,0.1-0.2,0.4-0.3l3.3-1.7
			c0.3-0.1,0.5-0.3,0.7-0.3c0.2,0,0.3,0.3,0.3,0.8s-0.1,6.9-0.1,8.5v2h0.2c1.1-1.3,2.9-2,4.3-2c1.3,0,2.2,0.4,3.1,1.3
			c1.4,1.3,1.4,2.9,1.4,4.6v1.8c0,1.8,0.1,3.7,0.1,4.3c0,0.4,0.5,0.5,1.2,0.5h0.5c0.3,0,0.3,0.1,0.3,0.3v0.5c0,0.3-0.1,0.4-0.3,0.4
			c-0.2,0-1.2-0.1-3-0.1c-1.5,0-2.7,0.1-3,0.1c-0.2,0-0.3-0.1-0.3-0.3v-0.5c0-0.2,0-0.3,0.2-0.3h0.7c0.5,0,1.2-0.1,1.2-0.6
			c0-0.4,0-2.1,0-3.1v-2.5c0-1.8-0.1-3-1-3.9c-0.6-0.6-1.3-0.9-2.1-0.9c-0.9,0-2,0.3-2.9,1.3c-0.3,0.3-0.6,1-0.6,1.5v6.8
			c0,1,0.1,1.3,0.7,1.3h0.9c0.2,0,0.3,0.1,0.3,0.3v0.5c0,0.2-0.1,0.3-0.3,0.3c-0.3,0-1.5-0.1-3-0.1c-1.6,0-2.8,0.1-3,0.1
			c-0.1,0-0.2-0.1-0.2-0.3v-0.6c0-0.2,0.1-0.3,0.5-0.3h0.7c0.5,0,1-0.1,1-0.5c0.1-0.6,0.1-4.1,0.1-6.1V140.1z"/>
		<path class="st1" d="M154.9,155.4c-1.4-1.7-1.7-2.9-1.7-5.1c0-1.6,0.8-3.6,2.7-5.1c1.6-1.3,3.2-1.5,4.2-1.5c1.7,0,3.5,0.9,4.4,1.8
			c1.4,1.4,2.1,3.1,2.1,5.1c0,3.4-3.1,6.9-6.9,6.9C158.1,157.6,156.2,157,154.9,155.4z M163.9,150.4c0-3.5-2.5-5.7-4.1-5.7
			c-0.8,0-1.7,0.2-2.4,1c-1.2,1.3-1.7,2.5-1.7,4.9c0,1.8,0.2,3,1.2,4.4c0.7,1,1.6,1.6,3.1,1.6C162.4,156.6,163.9,153.7,163.9,150.4z
			"/>
		<path class="st1" d="M179.2,149.6c0,1.7,0.8,3.6,1.6,4.8c1,1.4,2.4,1.6,3.4,1.6c1.6,0,2.4-0.3,3.5-1.4c0.1-0.1,0.2-0.1,0.3,0
			l0.3,0.3c0.1,0.1,0.2,0.2,0,0.4c-0.9,1-2.9,2.2-5.1,2.2c-1.7,0-3.4-0.4-4.9-2.2c-1.2-1.5-1.4-2.9-1.4-4.3c0-3.7,2.6-7.4,6.7-7.4
			c3.3,0,4.3,1.9,4.3,2.5c0,0.7-0.5,1.1-1.2,1.1c-0.7,0-1.3-0.4-1.7-1.3c-0.7-1.3-1.4-1.4-2.1-1.4
			C181.1,144.7,179.2,146.4,179.2,149.6z"/>
		<path class="st1" d="M199.5,155.4c-1.4-1.7-1.7-2.9-1.7-5.1c0-1.6,0.8-3.6,2.7-5.1c1.6-1.3,3.2-1.5,4.2-1.5c1.7,0,3.5,0.9,4.4,1.8
			c1.4,1.4,2.1,3.1,2.1,5.1c0,3.4-3.1,6.9-6.9,6.9C202.8,157.6,200.8,157,199.5,155.4z M208.6,150.4c0-3.5-2.5-5.7-4.1-5.7
			c-0.8,0-1.7,0.2-2.4,1c-1.2,1.3-1.7,2.5-1.7,4.9c0,1.8,0.2,3,1.2,4.4c0.7,1,1.6,1.6,3.1,1.6C207,156.6,208.6,153.7,208.6,150.4z"
			/>
		<path class="st1" d="M225.6,147.8c0,1.6,0,6.4,0,7.4c0,0.5,0.2,1,0.8,1h1.4c0.3,0,0.3,0.1,0.3,0.3v0.5c0,0.2-0.1,0.3-0.2,0.3
			c-0.2,0-1.6-0.1-3.6-0.1c-2,0-3.3,0.1-3.5,0.1c-0.2,0-0.2-0.1-0.2-0.3v-0.5c0-0.2,0.1-0.3,0.4-0.3h1.5c0.3,0,0.7-0.2,0.7-0.8
			c0-1,0-6.4,0-8.2v-2c0-2.2,0-5.1-0.1-5.9c-0.1-1.1-0.6-1.6-1.6-1.9l-0.6-0.2c-0.2-0.1-0.2-0.1-0.2-0.2v-0.3c0-0.1,0.1-0.2,0.3-0.2
			c1.1-0.5,2.5-1.1,3.7-1.8c0.3-0.2,0.5-0.3,0.7-0.3c0.2,0,0.3,0.2,0.3,0.6c0,1.7-0.1,8.3-0.1,10V147.8z"/>
		<path class="st1" d="M247.9,155.8c0.5,0,0.9-0.3,1.1-0.5c0.1-0.2,0.2-0.2,0.3-0.1l0.3,0.3c0.1,0.1,0.2,0.3,0,0.6
			c-0.3,0.5-0.8,1.5-2.5,1.5c-1.1,0-1.9-0.8-2.2-2.1h-0.1c-0.7,0.8-1.7,1.4-3.1,1.9c-0.6,0.2-1.2,0.2-1.9,0.2
			c-0.8,0-1.9-0.6-1.9-2.6c0-1.4,0.7-2.7,3.1-3.8c1.4-0.6,3-1.4,3.5-1.8v-2c-0.1-0.5-0.1-1.4-0.4-1.8c-0.3-0.4-1-0.7-1.9-0.7
			c-0.6,0-1.6,0.3-2,0.7c-0.4,0.4-0.2,0.9-0.2,1.4c0,1.1-0.4,1.8-1.7,1.8c-0.5,0-0.8-0.3-0.8-1c0-1,0.9-2.2,2.2-3
			c1.3-0.8,2.4-1.1,3.8-1.1c1.5,0,2.1,0.4,2.5,0.8c0.7,0.7,0.7,1.4,0.7,2.2v6.7C247,155.3,247.4,155.8,247.9,155.8z M244.7,150.3
			c-1.1,0.8-4.2,1.5-4.2,4.1c0,1.2,0.7,1.7,1.6,1.7c0.9,0,2.6-1.1,2.6-1.9V150.3z"/>
		<path class="st1" d="M263.2,153.3c0,2.4,1.1,2.8,1.6,2.8c0.7,0,1.6-0.1,2.1-0.4c0.2-0.1,0.3-0.1,0.4,0.1l0.2,0.3
			c0.1,0.1,0,0.3-0.1,0.3c-0.3,0.3-1.6,1.3-3.5,1.3c-1.5,0-3-1.5-3-2.7c0-1.3,0.1-4.1,0.1-4.5v-0.7c0-0.6,0-2.7,0.1-4h-1.9
			c-0.3,0-0.5-0.1-0.5-0.4c0-0.3,0.2-0.3,0.6-0.6c0.8-0.4,3.2-2.9,3.6-3.9c0.1-0.3,0.3-0.3,0.4-0.3c0.3,0,0.3,0.2,0.3,0.5l-0.2,3.1
			h4.4c0.2,0,0.3,0.2,0.2,0.3l-0.3,1.1c0,0.2-0.1,0.3-0.3,0.3h-4.1c-0.1,1.4-0.1,3-0.1,4.4V153.3z"/>
		<path class="st1" d="M279.6,148.8c-0.1,0.3-0.1,0.8-0.1,1.5c0,3.1,1.9,5.4,4.5,5.4c1.9,0,3.3-1.1,3.8-2.1c0.1-0.1,0.2-0.2,0.3-0.2
			l0.4,0.2c0.1,0,0.2,0.1,0,0.5c-0.6,1.3-2.2,3.4-5,3.4c-1.8,0-3.8-0.5-4.9-2.2c-1.1-1.6-1.4-2.8-1.4-5c0-1.2,0.3-3.3,2-5
			c1.4-1.4,2.9-1.7,4.5-1.7c3.6,0,4.6,3.4,4.6,4.6c0,0.4-0.4,0.5-0.9,0.5H279.6z M284.6,147.9c0.6,0,0.8-0.2,0.8-0.4
			c0-0.7-0.4-2.8-2.4-2.8c-1.4,0-2.7,0.9-3.3,3.2H284.6z"/>
		<path class="st1" d="M299.4,156.7c-0.2-0.1-0.2-0.3-0.2-0.4l-0.5-3c0-0.2,0.1-0.2,0.2-0.3l0.4-0.1c0.1,0,0.2,0,0.3,0.2l0.8,1.5
			c0.6,1.2,1.1,1.9,2.7,1.9c1.1,0,2.5-0.7,2.5-2.1c0-1.4-0.7-2.2-3-2.9c-1.9-0.5-3.7-1.5-3.7-4c0-2.2,2-3.8,4.4-3.8
			c1.5,0,2.3,0.4,2.9,0.7c0.5,0.2,0.5,0.4,0.6,0.6l0.5,2.2c0,0.1-0.1,0.2-0.2,0.3l-0.4,0.1c-0.1,0-0.2,0-0.3-0.2l-1.1-1.4
			c-0.4-0.6-1-1.2-2.2-1.2c-1.2,0-2.4,0.7-2.4,2.1c0,1.8,1.5,2.2,3,2.6c2.3,0.7,3.7,1.6,3.8,4c0,2.5-2.1,4.1-4.8,4.1
			C301.1,157.6,299.8,157,299.4,156.7z"/>
	</g>
</g>
</svg>
